<svg width="221" height="159" viewBox="0 0 221 159" fill="none" xmlns="http://www.w3.org/2000/svg">
<path d="M72.7797 49.4079C76.7165 57.9983 62.9541 65.3868 61.8955 72.0033C60.7045 79.4249 61.2779 89.5813 71.0704 84.4755C73.3972 83.2625 83.0684 71.3858 84.1491 68.8936C88.2072 59.5201 85.6488 50.643 101.54 52.65V55.9472C79.6388 55.1091 92.3536 77.9141 100.977 86.8023C106.083 78.8956 113.504 71.2314 118.125 63.1703C119.746 60.3362 119.691 56.653 121.974 53.7858C124.797 50.257 134.832 45.9783 135.703 52.6279C112.865 53.2675 124.984 73.2825 134.071 83.5051C135.67 83.9021 135.89 82.5016 136.651 81.6855C138.945 79.2374 149.697 64.5708 151.009 61.858C152.84 58.0645 151.913 53.5763 155.012 50.4445C159.126 53.2014 152.939 67.1512 157.229 68.0555C161.364 68.9046 167.992 48.1618 170.991 51.5252L169.91 73.5693C176.373 68.4745 182.769 60.7993 189.716 56.4545C191.172 55.5502 191.811 54.2159 194.149 54.8334C196.421 57.1492 186.32 63.2364 184.754 64.7251C181.853 67.46 170.12 78.5427 169.282 81.2334C166.029 101.998 165.885 133.636 155.045 151.909C150.171 160.125 143.885 160.974 141.702 150.85C137.71 132.39 146.532 108.846 155.784 93.0991C157.769 89.7246 165.797 80.263 166.36 78.3111C167.573 74.0545 165.786 67.3828 167.683 62.5527C162.335 67.7688 158.486 77.5833 151.704 66.9858C150.524 66.9417 138.272 84.4314 137.677 86.0194C134.744 93.7828 139.243 100.918 132.88 109.894C131.005 112.541 125.602 117.095 122.966 113.346C119.283 108.108 130.366 92.9447 132.185 87.5412L120.342 68.7612L118.081 68.0886C116.317 74.9477 104.23 85.093 102.819 90.9707C102.267 93.2865 103.922 96.9477 103.635 100.454C103.249 105.229 97.327 119.576 91.1847 117.635C82.6935 114.956 98.132 94.0364 98.132 90.684C98.132 85.1923 87.4684 77.6936 87.1817 71.3858C81.5907 76.5357 77.9185 85.1482 70.6514 88.4785C47.8905 98.8996 62.0278 41.7878 72.7797 49.3968V49.4079ZM165.477 85.7216C152.873 101.888 142.132 126.005 144.536 146.925C144.911 150.167 145.694 153.133 148.396 155.173C156.17 155.228 165.907 94.29 165.477 85.7216ZM125.8 111.074C128.436 114.018 136.133 96.264 133.497 93.4409L127.807 103.719L125.8 111.074ZM94.8899 113.279C97.327 107.942 100.724 102.98 100.415 96.7492C96.5661 99.1091 92.2433 108.471 92.6955 112.728L94.8899 113.279Z" fill="#1F1F1F"/>
<path d="M46.3902 47.114C51.7606 45.8679 56.9325 43.3536 62.5235 42.8463C64.1335 42.7029 66.7361 41.6553 66.2288 44.3461L46.2799 51.128L33.9511 132.28C23.8168 156.309 5.75361 141.378 1.47491 122.355C-5.56068 91.0588 13.2854 59.7074 42.8614 49.11C43.2143 42.2618 50.9225 7.67942 47.4819 4.10649C38.9907 5.63932 34.2378 21.0558 37.1932 28.1135C37.4468 28.709 46.6218 35.6233 38.5937 33.4288C25.515 29.8669 37.1822 -2.05791 47.8127 0.941582C53.9882 2.68394 51.1982 17.2513 50.6358 22.1365C49.6985 30.4072 47.6914 38.8764 46.3902 47.1029V47.114ZM41.9681 52.6388C14.9506 64.4824 -2.17521 93.5179 5.20223 123.05C9.13907 138.819 23.0559 150.949 30.8965 130.317L41.9792 52.6388H41.9681Z" fill="#1F1F1F"/>
<path d="M208.972 37.1339L204.01 43.7504" stroke="#7225E5"/>
<path d="M218.897 42.6478L208.421 50.9185" stroke="#7225E5"/>
<path d="M220 62.4974L208.421 56.9836" stroke="#7225E5"/>
<path d="M209.524 72.4223L204.01 63.0488" stroke="#7225E5"/>
</svg>
